<?xml version="1.0" standalone="no"?>
<!DOCTYPE svg PUBLIC "-//W3C//DTD SVG 20010904//EN"
 "http://www.w3.org/TR/2001/REC-SVG-20010904/DTD/svg10.dtd">
<svg version="1.0" xmlns="http://www.w3.org/2000/svg"
 width="198.000000pt" height="201.000000pt" viewBox="0 0 198.000000 201.000000"
 preserveAspectRatio="xMidYMid meet">

<g transform="translate(0.000000,201.000000) scale(0.100000,-0.100000)"
fill="#FFFFFF" stroke="none">
<path d="M870 1964 c-187 -32 -308 -81 -443 -177 -129 -92 -258 -255 -321
-405 -52 -124 -69 -216 -70 -372 0 -189 25 -288 112 -454 146 -278 421 -462
741 -498 279 -31 551 61 758 256 79 74 164 188 211 282 64 126 98 311 89 473
-15 247 -111 454 -294 632 -177 173 -374 256 -628 264 -71 2 -141 2 -155 -1z
m279 -50 c369 -69 644 -328 737 -694 25 -100 26 -325 1 -420 -47 -177 -120
-303 -252 -435 -137 -137 -262 -208 -445 -252 -110 -26 -308 -24 -420 5 -270
70 -499 261 -612 509 -41 91 -55 136 -72 238 -20 113 -20 179 -1 291 34 193
113 351 244 488 216 224 523 326 820 270z"/>
<path d="M460 1340 c0 -229 -10 -207 105 -212 l60 -3 3 -107 3 -108 29 0 30 0
0 110 0 109 88 3 87 3 3 203 2 202 -205 0 -205 0 0 -200z m348 -2 l-3 -143
-140 0 -140 0 -3 129 c-1 72 0 136 2 143 4 10 40 13 146 13 l141 0 -3 -142z"/>
<path d="M580 1335 l0 -85 85 0 85 0 0 85 0 85 -85 0 -85 0 0 -85z"/>
<path d="M970 1511 c0 -24 4 -31 20 -31 18 0 20 -8 22 -92 l3 -93 30 0 30 0 0
120 0 120 -52 3 -53 3 0 -30z"/>
<path d="M1112 1338 l3 -203 200 0 200 0 3 203 2 202 -205 0 -205 0 2 -202z
m346 0 l-3 -143 -140 0 -140 0 -3 143 -3 142 146 0 146 0 -3 -142z"/>
<path d="M1230 1335 l0 -85 85 0 85 0 0 85 0 85 -85 0 -85 0 0 -85z"/>
<path d="M900 1420 c0 -28 3 -31 28 -28 21 2 27 8 27 28 0 20 -6 26 -27 28
-25 3 -28 0 -28 -28z"/>
<path d="M900 1320 c0 -28 3 -31 28 -28 21 2 27 8 27 28 0 20 -6 26 -27 28
-25 3 -28 0 -28 -28z"/>
<path d="M907 1244 c-4 -4 -7 -18 -7 -31 0 -19 5 -23 31 -23 27 0 30 3 27 28
-3 26 -34 43 -51 26z"/>
<path d="M917 1154 c-4 -4 -7 -20 -7 -35 0 -25 -4 -28 -37 -31 -33 -3 -38 -7
-41 -30 l-3 -28 70 0 71 0 0 29 c0 32 14 41 66 41 33 0 35 2 32 28 -3 26 -5
27 -73 30 -39 1 -74 0 -78 -4z"/>
<path d="M467 1103 c-4 -3 -7 -46 -7 -95 l0 -89 73 3 c69 3 72 4 72 28 0 22
-5 26 -40 30 l-40 5 -3 63 c-3 57 -5 62 -26 62 -12 0 -26 -3 -29 -7z"/>
<path d="M1107 1104 c-4 -4 -7 -18 -7 -31 0 -19 5 -23 31 -23 27 0 30 3 27 28
-3 26 -34 43 -51 26z"/>
<path d="M728 1073 c-2 -4 -3 -14 -2 -20 1 -7 2 -18 3 -24 0 -6 13 -9 29 -7
21 2 27 8 27 28 0 20 -6 26 -27 28 -14 2 -28 0 -30 -5z"/>
<path d="M1277 1074 c-4 -4 -7 -18 -7 -31 0 -23 1 -23 121 -23 l120 0 -3 28
-3 27 -111 3 c-60 1 -113 -1 -117 -4z"/>
<path d="M1009 1016 c-5 -6 -9 -18 -9 -28 0 -16 10 -18 85 -18 l85 0 0 -39 c0
-55 8 -71 36 -71 29 0 36 24 32 101 l-3 54 -108 5 c-62 3 -112 1 -118 -4z"/>
<path d="M730 940 l0 -31 118 3 117 3 0 25 0 25 -117 3 -118 3 0 -31z"/>
<path d="M1280 931 c0 -28 3 -31 31 -31 27 0 30 3 27 28 -2 21 -9 28 -30 30
-25 3 -28 0 -28 -27z"/>
<path d="M1377 953 c-4 -3 -7 -17 -7 -30 0 -19 5 -23 30 -23 27 0 30 3 30 30
0 25 -4 30 -23 30 -13 0 -27 -3 -30 -7z"/>
<path d="M1466 934 c-8 -20 -8 -188 0 -208 8 -21 50 -21 58 0 8 20 8 188 0
208 -3 9 -16 16 -29 16 -13 0 -26 -7 -29 -16z"/>
<path d="M1044 915 c-10 -25 4 -45 31 -45 21 0 25 5 25 30 0 25 -4 30 -25 30
-14 0 -28 -7 -31 -15z"/>
<path d="M460 680 c0 -199 0 -200 23 -205 12 -3 103 -4 202 -3 l180 3 3 203 2
202 -205 0 -205 0 0 -200z m350 0 c0 -105 -3 -140 -12 -141 -10 -1 -238 0
-270 1 -10 0 -11 264 -1 273 3 4 69 7 145 7 l138 0 0 -140z"/>
<path d="M584 757 c-3 -8 -4 -47 -2 -88 l3 -74 83 -3 82 -3 0 91 0 90 -80 0
c-58 0 -82 -4 -86 -13z"/>
<path d="M1158 753 c-5 -147 -8 -143 109 -143 54 0 104 4 111 8 9 6 12 37 10
118 l-3 109 -112 3 -112 3 -3 -98z m170 -20 l3 -53 -55 0 -56 0 0 56 0 55 53
-3 52 -3 3 -52z"/>
<path d="M970 811 c0 -23 5 -30 23 -33 21 -3 22 -8 25 -105 l3 -103 55 0 c52
0 55 1 52 23 -2 14 -11 23 -25 25 -21 3 -22 8 -25 110 l-3 107 -52 3 c-53 3
-53 3 -53 -27z"/>
<path d="M910 709 c0 -27 3 -30 28 -27 21 2 28 9 30 31 3 24 0 27 -27 27 -28
0 -31 -3 -31 -31z"/>
<path d="M1460 610 l0 -60 -35 0 c-28 0 -36 -4 -41 -24 -8 -35 -1 -41 48 -40
97 3 88 -7 88 94 l0 90 -30 0 -30 0 0 -60z"/>
<path d="M910 551 l0 -71 75 0 c73 0 75 1 75 24 0 22 -6 26 -44 31 -43 7 -45
9 -48 44 -3 31 -7 36 -30 39 l-28 3 0 -70z"/>
<path d="M1132 538 c-18 -18 -15 -36 7 -48 25 -13 51 -3 51 19 0 19 -19 41
-35 41 -6 0 -16 -5 -23 -12z"/>
<path d="M1237 544 c-15 -15 -7 -52 12 -57 27 -7 43 7 39 34 -3 24 -36 38 -51
23z"/>
</g>
</svg>
